# xmcd
#
# Track frame offsets: 
#        150
#        29438
#        65877
#        100327
#        131716
#        158075
#        190569
#        214880
#        226288
#        239885
#        258046
#        269859
#        287275
#        301408
#        318117
#        331111
#
# Disc length: 4705 seconds
#
# Revision: 0
# Processed by: cddbd v1.5.2PL0 Copyright (c) Steve Scherf et al.
# Submitted via: ExactAudioCopy v0.99pb5
#
DISCID=e9125f10
DTITLE=Duke Ellington and Johny Hodges - Play The Blues
DYEAR=1959
DGENRE=Jazz
TTITLE0=Wabash Blues
TTITLE1=Basin Street Blues
TTITLE2=Beale Street Blues
TTITLE3=Weary Blues
TTITLE4=St. Louis Blues
TTITLE5=Loveless Love
TTITLE6=Royal Garden Blues
TTITLE7=Villes Ville Is The Place, Man
TTITLE8=Brown Penny
TTITLE9=Sentimental Lady (aka I Didn't Know About You)
TTITLE10=Smada
TTITLE11=The Swinger's Jump
TTITLE12=The Swingers Get The Blues
TTITLE13=Blues In Blueprint
TTITLE14=Three J's Blues
TTITLE15=C Jam Blues
EXTD=
EXTT0=
EXTT1=
EXTT2=
EXTT3=
EXTT4=
EXTT5=
EXTT6=
EXTT7=
EXTT8=
EXTT9=
EXTT10=
EXTT11=
EXTT12=
EXTT13=
EXTT14=
EXTT15=
PLAYORDER=
